# xmcd CD database file
#
# Track frame offsets:
#	150
#	19985
#	22461
#	38771
#	47418
#	53830
#	57620
#	62968
#	68593
#	71465
#	78806
#	89486
#	95268
#	102880
#	113115
#	122435
#	130093
#	137790
#	146377
#	149132
#	151899
#	154513
#	164332
#	171836
#	176921
#	182426
#	200235
#	202888
#	219585
#	233941
#
# Disc length: 3345 seconds
#
# Revision: 1
# Processed by: cddbd v1.5.1PL0 Copyright (c) Steve Scherf et al.
# Submitted via: CDex 1.51
#
DISCID=b20d0f1e
DTITLE=Panos Kiamos - Live CD1
DYEAR=1900
DGENRE=
TTITLE0=EISAGOGH
TTITLE1=MOU LEIPSEIS
TTITLE2=TO GELIO SOU KLAIEI
TTITLE3=ALITHINA
TTITLE4=TORA POU MPORO
TTITLE5=DEN THA FYGEIS
TTITLE6=DEN EISAI MONI
TTITLE7=EISAI TO PATHOS MOU
TTITLE8=XEIMONES KALOKAIRIA
TTITLE9=THA ME ZHTAS
TTITLE10=TRELOS GIA SENA
TTITLE11=GYRNA PISO
TTITLE12=OLA GIA SENA NE MILANE
TTITLE13=FTANEI NA GYRISEIS
TTITLE14=POU NA PAO
TTITLE15=MPIMPELO MOU
TTITLE16=S' AGAPAO KOITA
TTITLE17=AGAPH MOU MEGALH
TTITLE18=ARKETA
TTITLE19=POLEITAI KAI TO SPITI MOU
TTITLE20=MONOS SE DIPLO KREBATI
TTITLE21=ASPRO MAVRO
TTITLE22=KARABANI
TTITLE23=TI ALLO THELEIS PIO POLY
TTITLE24=ENOXLEITAI
TTITLE25=OTAN PEFTEI TO SKOTADI
TTITLE26=APOXVRISH
TTITLE27=STH THESSALONIKH TRAGOUDAO
TTITLE28=THA ME PAS STO TRELLADIKO
TTITLE29=PES MOU AN EXO ADIKO
EXTD=
EXTT0=
EXTT1=
EXTT2=
EXTT3=
EXTT4=
EXTT5=
EXTT6=
EXTT7=
EXTT8=
EXTT9=
EXTT10=
EXTT11=
EXTT12=
EXTT13=
EXTT14=
EXTT15=
EXTT16=
EXTT17=
EXTT18=
EXTT19=
EXTT20=
EXTT21=
EXTT22=
EXTT23=
EXTT24=
EXTT25=
EXTT26=
EXTT27=
EXTT28=
EXTT29=
PLAYORDER=
